{"title":"Ring.Of.Fire.2012.SWESUB.COMPLETE.DVDRip.XviD-CSG","uid":8874177,"size":1467829138,"categoryP":"video","categoryS":"movies","magnet":"?xt=urn:btih:a24090e288960daa3ee17644cee2e54b10dabca3&amp;dn=Ring.Of.Fire.2012.SWESUB.COMPLETE.DVDRip.XviD-CSG&amp;tr=udp%3A%2F%2Ftracker.openbittorrent.com%3A80&amp;tr=udp%3A%2F%2Fopen.demonii.com%3A1337&amp;tr=udp%3A%2F%2Ftracker.coppersurfer.tk%3A6969&amp;tr=udp%3A%2F%2Fexodus.desync.com%3A6969","seeders":0,"leechers":1,"uploader":"NickeNyfiken66","files":3,"time":1378148324,"description":"When an oil rig causes a volcanic eruption in a small town, it's just the first in a trigger effect called the Ring of Fire that stretches across the globe.\n\nGeneral\nComplete name                            : Ring.of.Fire.Part.2012.SWESUB.DVDRip.XviD-CSG.avi\nFormat                                   : AVI\nFormat/Info                              : Audio Video Interleave\nFile size                                : 700 MiB\nDuration                                 : 1h 24mn\nOverall bit rate                         : 1 163 Kbps\nWriting application                      : VirtualDubMod 1.5.10.2 (build 2542/release)\nWriting library                          : VirtualDubMod build 2542/release\n\nVideo\nID                                       : 0\nFormat                                   : MPEG-4 Visual\nFormat profile                           : Advanced Simple@L5\nFormat settings, BVOP                    : 1\nFormat settings, QPel                    : No\nFormat settings, GMC                     : No warppoints\nFormat settings, Matrix                  : Default (H.263)\nMuxing mode                              : Packed bitstream\nCodec ID                                 : XVID\nCodec ID/Hint                            : XviD\nDuration                                 : 1h 24mn\nBit rate                                 : 1 025 Kbps\nWidth                                    : 640 pixels\nHeight                                   : 352 pixels\nDisplay aspect ratio                     : 16:9\nFrame rate                               : 25.000 fps\nColor space                              : YUV\nChroma subsampling                       : 4:2:0\nBit depth                                : 8 bits\nScan type                                : Progressive\nCompression mode                         : Lossy\nBits/(Pixel*Frame)                       : 0.182\nStream size                              : 617 MiB (88%)\nWriting library                          : XviD 1.2.1 (UTC 2008-12-04)\n\nAudio\nID                                       : 1\nFormat                                   : MPEG Audio\nFormat version                           : Version 1\nFormat profile                           : Layer 3\nMode                                     : Joint stereo\nMode extension                           : MS Stereo\nCodec ID                                 : 55\nCodec ID/Hint                            : MP3\nDuration                                 : 1h 24mn\nBit rate mode                            : Constant\nBit rate                                 : 128 Kbps\nChannel(s)                               : 2 channels\nSampling rate                            : 48.0 KHz\nCompression mode                         : Lossy\nStream size                              : 77.0 MiB (11%)\nAlignment                                : Aligned on interleaves\nInterleave, duration                     : 40 ms (1.00 video frame)\nInterleave, preload duration             : 504 ms\nWriting library                          : LAME3.97 \nEncoding settings                        : -m j -V 4 -q 2 -lowpass 17 -b 128\n","torrent":{"xt":"urn:btih:a24090e288960daa3ee17644cee2e54b10dabca3","amp;dn":"Ring.Of.Fire.2012.SWESUB.COMPLETE.DVDRip.XviD-CSG","amp;tr":["udp%3A%2F%2Ftracker.openbittorrent.com%3A80","udp%3A%2F%2Fopen.demonii.com%3A1337","udp%3A%2F%2Ftracker.coppersurfer.tk%3A6969","udp%3A%2F%2Fexodus.desync.com%3A6969"],"infoHash":"a24090e288960daa3ee17644cee2e54b10dabca3","infoHashBuffer":{"type":"Buffer","data":[162,64,144,226,136,150,13,170,62,225,118,68,206,226,229,75,16,218,188,163]},"announce":[],"urlList":[]}}